<?xml version="1.0" encoding="UTF-8" standalone="no"?>
<svg width="30px" height="28px" viewBox="0 0 30 28" version="1.1" xmlns="http://www.w3.org/2000/svg" xmlns:xlink="http://www.w3.org/1999/xlink" xmlns:sketch="http://www.bohemiancoding.com/sketch/ns">
    <!-- Generator: Sketch 3.0.3 (7892) - http://www.bohemiancoding.com/sketch -->
    <title>Fill 1</title>
    <desc>Created with Sketch.</desc>
    <defs></defs>
    <g id="Page-1" stroke="none" stroke-width="1" fill="none" fill-rule="evenodd" sketch:type="MSPage">
        <g id="Imported-Layers" sketch:type="MSLayerGroup" transform="translate(15.000000, 13.717391) scale(-1, 1) translate(-15.000000, -13.717391) translate(1.000000, 0.217391)" fill="#F2F2F2">
            <path d="M25.4552464,27.0128769 C25.2417971,27.0128769 25.0271304,26.9559692 24.8347826,26.8388308 L19.5987826,23.6632154 C17.8112464,24.3519231 15.9092754,24.7008462 13.9358841,24.7008462 C6.16568116,24.7008462 -0.155826087,19.1633538 -0.155826087,12.3568615 C-0.155826087,5.55036923 6.16568116,0.0128769231 13.9358841,0.0128769231 C21.7064928,0.0128769231 28.028,5.55036923 28.028,12.3568615 C28.028,15.3600923 26.8126377,18.2000769 24.5864348,20.4435692 L26.5772754,25.2832154 C26.7809855,25.7787692 26.6515362,26.3524154 26.2554783,26.7059077 C26.0282319,26.9086154 25.7425507,27.0128769 25.4552464,27.0128769 Z M6.83443478,12.4744154 C6.83443478,13.392 7.56121739,14.1359538 8.45762319,14.1359538 C9.35402899,14.1359538 10.0808116,13.392 10.0808116,12.4744154 C10.0808116,11.5568308 9.35402899,10.8128769 8.45762319,10.8128769 C7.56121739,10.8128769 6.83443478,11.5568308 6.83443478,12.4744154 Z M12.1097971,12.4744154 C12.1097971,13.392 12.8365797,14.1359538 13.7329855,14.1359538 C14.6293913,14.1359538 15.3561739,13.392 15.3561739,12.4744154 C15.3561739,11.5568308 14.6293913,10.8128769 13.7329855,10.8128769 C12.8365797,10.8128769 12.1097971,11.5568308 12.1097971,12.4744154 Z M17.3851594,12.4744154 C17.3851594,13.392 18.111942,14.1359538 19.0083478,14.1359538 C19.9047536,14.1359538 20.6315362,13.392 20.6315362,12.4744154 C20.6315362,11.5568308 19.9047536,10.8128769 19.0083478,10.8128769 C18.111942,10.8128769 17.3851594,11.5568308 17.3851594,12.4744154 Z" id="Fill-1" sketch:type="MSShapeGroup"></path>
        </g>
    </g>
</svg>